<svg xmlns="http://www.w3.org/2000/svg" version="1.0" viewBox="0 152.07 375.38 70.78"><defs><clipPath id="a"><path d="M0 194h59v28.566H0Zm0 0"/></clipPath><clipPath id="b"><path d="M54 194h58.5v28.566H54Zm0 0"/></clipPath><clipPath id="c"><path d="M41 152.066h30V211H41Zm0 0"/></clipPath></defs><path fill="none" stroke="#5e17eb" stroke-width="2.01296" d="M145.074 174.559h6.817v8.582h-6.817v8.32c0 1.617.36 2.656 1.074 3.121.72.461 1.63.691 2.739.691.43 0 .91-.043 1.441-.128.543-.086.883-.149 1.024-.184v8.047c-.254.14-.774.297-1.559.472-.79.184-1.863.274-3.227.274-2.253 0-4.238-.356-5.96-1.063-1.711-.714-3.043-1.894-3.997-3.539-.945-1.648-1.414-3.855-1.414-6.617v-9.394h-4.3v-8.582h4.3v-8.047h9.88Zm30.328 28.449-.535-2.688c-1.008 1.04-2.215 1.875-3.633 2.504-1.414.621-3.07.93-4.964.93-2.22 0-3.985-.418-5.293-1.258-1.305-.84-2.223-1.926-2.766-3.262-.535-1.347-.8-2.77-.8-4.273v-.54c0-2.077.429-3.722 1.284-4.937.864-1.214 2.082-2.156 3.657-2.82 1.574-.664 3.414-1.156 5.53-1.48l6.013-.97c-.036-1.03-.286-1.784-.758-2.265-.465-.488-1.23-.734-2.309-.734-1.21 0-2.023.289-2.437.863a3.14 3.14 0 0 0-.614 1.875h-9.293v-.484c0-1.723.387-3.313 1.157-4.77.765-1.469 2.062-2.648 3.89-3.539 1.824-.898 4.352-1.351 7.574-1.351 3.258 0 5.797.421 7.614 1.261 1.824.836 3.125 2.075 3.89 3.707.778 1.625 1.168 3.618 1.168 5.977v10.207l.524 8.047Zm-5.37-7.195c.82 0 1.57-.172 2.253-.512.68-.34 1.219-.688 1.61-1.047v-4.34l-3.864.59c-1.144.176-1.898.508-2.254.996-.359.48-.539 1.04-.539 1.68v.328c0 .574.215 1.105.645 1.586.426.48 1.144.719 2.148.719Zm32.679.539c1.074 0 1.816-.207 2.227-.618.421-.41.628-.906.628-1.48 0-.602-.199-1.082-.601-1.441-.39-.36-1.266-.59-2.621-.696-4.078-.324-7.098-1.047-9.055-2.176-1.95-1.125-2.922-3.105-2.922-5.937v-.535c0-2.36.555-4.246 1.664-5.66 1.11-1.418 2.606-2.434 4.48-3.055 1.88-.629 3.946-.945 6.2-.945 4.266 0 7.387.863 9.371 2.582 1.992 1.714 2.988 4.14 2.988 7.289v.273h-9.672c0-1.824-.894-2.738-2.687-2.738-.89 0-1.559.18-2.004.535-.445.36-.668.824-.668 1.39 0 .68.215 1.169.64 1.454.43.289 1.25.488 2.466.59 2.402.183 4.523.515 6.367.996 1.843.48 3.289 1.27 4.34 2.36 1.054 1.093 1.586 2.679 1.586 4.757v.535c0 3.113-1.06 5.547-3.172 7.3-2.106 1.747-5.29 2.622-9.555 2.622-4.184 0-7.352-.863-9.5-2.594-2.14-1.738-3.211-4.078-3.211-7.012v-.261h9.816c0 1.64.965 2.465 2.895 2.465Zm19.004 6.656v-42.946h9.879V182.5l6.226-7.941h11.805l-9.328 10.785 9.328 17.664h-11.531l-4.625-9.762-1.875 2.188v7.574Zm0 0"/><path fill="#ab86f5" d="M274.57 173.989v2.937h5.75v8.594h-5.75v19.86h-9.876v-19.86h-4.281v-8.594h4.281v-4.016c0-2.789.473-5 1.422-6.625.945-1.632 2.281-2.804 4-3.515 1.719-.719 3.707-1.078 5.969-1.078 1.351 0 2.422.09 3.203.265.789.18 1.312.34 1.562.485v8.047c-.136-.07-.476-.141-1.015-.204a11.51 11.51 0 0 0-1.453-.109c-1.106 0-2.016.234-2.735.703-.718.461-1.078 1.496-1.078 3.11ZM287.083 205.38v-42.938h9.875v42.937ZM316.927 206.13c-3.117 0-5.684-.579-7.703-1.735-2.024-1.164-3.528-2.797-4.516-4.89-.98-2.095-1.469-4.52-1.469-7.282v-2.14c0-2.79.489-5.223 1.469-7.298.988-2.07 2.492-3.69 4.516-4.859 2.02-1.164 4.586-1.75 7.703-1.75 3.144 0 5.719.586 7.719 1.75 2.007 1.168 3.503 2.79 4.484 4.86.988 2.074 1.484 4.507 1.484 7.296v2.141c0 2.762-.496 5.187-1.484 7.281-.98 2.094-2.477 3.727-4.484 4.89-2 1.157-4.575 1.735-7.72 1.735Zm0-8.485c1.351 0 2.332-.461 2.937-1.39.614-.927.922-2.27.922-4.032v-2.14c0-1.75-.308-3.087-.922-4.016-.605-.938-1.586-1.407-2.937-1.407-1.324 0-2.305.47-2.938 1.407-.625.93-.937 2.265-.937 4.015v2.141c0 1.762.312 3.105.937 4.031.633.93 1.614 1.39 2.938 1.39ZM355.252 187.13l-3.219 18.25h-12.36l-4.546-28.454h9.656l1.344 17.719 3.219-17.719h11.797l3.234 17.719 1.328-17.719h9.672l-4.563 28.453h-12.343Zm0 0"/><path fill="none" stroke="#5e17eb" stroke-width="2.01296" d="M272.207 171.61v2.949h5.738v8.582h-5.738v19.867h-9.883V183.14h-4.297v-8.582h4.297v-4.024c0-2.797.473-5.008 1.418-6.633.95-1.625 2.285-2.793 3.996-3.511 1.719-.715 3.707-1.075 5.961-1.075 1.364 0 2.438.094 3.227.278.785.172 1.304.332 1.558.468v8.063c-.14-.082-.48-.156-1.023-.223a11.08 11.08 0 0 0-1.441-.105c-1.11 0-2.024.234-2.739.707-.715.46-1.074 1.496-1.074 3.105Zm12.508 31.398v-42.946h9.867v42.946Zm29.84.746c-3.11 0-5.68-.582-7.707-1.742-2.016-1.164-3.52-2.79-4.508-4.875-.988-2.098-1.48-4.528-1.48-7.285v-2.137c0-2.797.492-5.23 1.48-7.3.988-2.08 2.492-3.7 4.508-4.86 2.027-1.164 4.597-1.746 7.707-1.746 3.144 0 5.718.582 7.718 1.746 2.008 1.16 3.504 2.78 4.48 4.86.99 2.07 1.481 4.503 1.481 7.3v2.137c0 2.757-.492 5.187-1.48 7.285-.977 2.086-2.473 3.71-4.48 4.875-2 1.16-4.575 1.742-7.72 1.742Zm0-8.48c1.363 0 2.343-.461 2.949-1.387.61-.934.914-2.282.914-4.035v-2.137c0-1.758-.305-3.098-.914-4.024-.606-.933-1.586-1.402-2.95-1.402-1.327 0-2.308.469-2.937 1.402-.617.926-.93 2.266-.93 4.024v2.137c0 1.753.313 3.101.93 4.035.63.926 1.61 1.386 2.938 1.386Zm38.316-10.52-3.21 18.254h-12.345l-4.574-28.45h9.672l1.336 17.715 3.223-17.714h11.808l3.223 17.714 1.336-17.714h9.656l-4.558 28.449h-12.344Zm0 0"/><path fill="#5e17eb" d="M83.883 197.973c-10.5 10.504-27.555 10.48-27.555 10.48s-.027-17.055 10.477-27.558c10.5-10.504 27.554-10.477 27.554-10.477s.028 17.055-10.476 27.555Zm0 0"/><path fill="#fff" d="M56.328 210.77h-.004a2.318 2.318 0 0 1-2.316-2.313c0-.738.101-18.144 11.156-29.203 11.027-11.027 28.457-11.156 29.195-11.156a2.322 2.322 0 0 1 2.32 2.316c0 .734-.1 18.145-11.156 29.2-11.03 11.03-28.46 11.156-29.195 11.156Zm35.578-37.895c-4.898.441-16.058 2.25-23.465 9.656-7.43 7.43-9.226 18.567-9.66 23.461 4.903-.441 16.059-2.25 23.465-9.656 7.43-7.43 9.223-18.563 9.66-23.461Zm0 0"/><path fill="#5e17eb" d="M45.848 180.895c10.504 10.5 10.48 27.558 10.48 27.558s-17.058.024-27.558-10.48c-10.504-10.5-10.48-27.555-10.48-27.555s17.058-.027 27.558 10.477Zm0 0"/><path fill="#fff" d="M56.328 210.77h-.004c-.734 0-18.164-.125-29.195-11.157-11.055-11.054-11.156-28.465-11.156-29.199a2.324 2.324 0 0 1 2.316-2.316c.738 0 18.172.129 29.2 11.156 11.054 11.059 11.156 28.465 11.156 29.203a2.318 2.318 0 0 1-2.317 2.313ZM20.75 172.879c.445 4.898 2.254 16.055 9.656 23.457 7.403 7.402 18.559 9.215 23.461 9.656-.445-4.902-2.254-16.054-9.656-23.46-7.402-7.403-18.555-9.212-23.461-9.653Zm0 0"/><path fill="#5e17eb" d="M29.43 196.375c14.855 0 26.898 12.078 26.898 12.078s-12.043 12.078-26.898 12.078c-14.852 0-26.895-12.078-26.895-12.078s12.043-12.078 26.895-12.078Zm0 0"/><g clip-path="url(#a)"><path fill="#fff" d="M29.43 222.848c-15.633 0-28.016-12.239-28.535-12.758a2.318 2.318 0 0 1 0-3.274c.52-.523 12.902-12.761 28.535-12.761 15.636 0 28.02 12.238 28.539 12.761a2.318 2.318 0 0 1 0 3.274c-.52.52-12.903 12.758-28.54 12.758ZM6.012 208.449c3.777 3.153 12.945 9.762 23.422 9.762 10.503 0 19.648-6.602 23.418-9.758-3.778-3.152-12.946-9.762-23.418-9.762-10.508 0-19.653 6.602-23.422 9.758Zm0 0"/></g><path fill="#5e17eb" d="M83.223 220.531c-14.856 0-26.895-12.078-26.895-12.078s12.04-12.078 26.895-12.078c14.851 0 26.894 12.078 26.894 12.078s-12.043 12.078-26.894 12.078Zm0 0"/><g clip-path="url(#b)"><path fill="#fff" d="M83.223 222.848c-15.637 0-28.02-12.239-28.54-12.758a2.318 2.318 0 0 1 0-3.274c.52-.523 12.903-12.761 28.54-12.761 15.632 0 28.015 12.238 28.535 12.761a2.318 2.318 0 0 1 0 3.274c-.52.52-12.903 12.758-28.535 12.758ZM59.8 208.449c3.777 3.153 12.949 9.762 23.422 9.762 10.504 0 19.648-6.602 23.418-9.758-3.778-3.152-12.946-9.762-23.418-9.762-10.508 0-19.653 6.602-23.422 9.758Zm0 0"/></g><path fill="#5e17eb" d="M68.406 181.559c0 14.851-12.078 26.894-12.078 26.894S44.246 196.41 44.246 181.56c0-14.856 12.082-26.899 12.082-26.899s12.078 12.043 12.078 26.899Zm0 0"/><g clip-path="url(#c)"><path fill="#fff" d="M56.328 210.77a2.31 2.31 0 0 1-1.637-.676c-.523-.52-12.761-12.903-12.761-28.535 0-15.637 12.238-28.02 12.761-28.54a2.318 2.318 0 0 1 3.274 0c.52.52 12.758 12.903 12.758 28.54 0 15.632-12.239 28.015-12.758 28.535a2.323 2.323 0 0 1-1.637.676Zm0-52.633c-3.152 3.777-9.762 12.949-9.762 23.422 0 10.504 6.602 19.648 9.758 23.418 3.153-3.778 9.762-12.95 9.762-23.418 0-10.508-6.602-19.653-9.758-23.422Zm0 0"/></g></svg>